<?xml version="1.0" encoding="UTF-8"?>
<!DOCTYPE svg PUBLIC "-//W3C//DTD SVG 1.1//EN" "http://www.w3.org/Graphics/SVG/1.1/DTD/svg11.dtd">
<!-- Creator: CorelDRAW 2017 -->
<svg xmlns="http://www.w3.org/2000/svg" xml:space="preserve" width="48in" height="36in" version="1.1" style="shape-rendering:geometricPrecision; text-rendering:geometricPrecision; image-rendering:optimizeQuality; fill-rule:evenodd; clip-rule:evenodd"
viewBox="0 0 48000 36000"
 xmlns:xlink="http://www.w3.org/1999/xlink">
 <defs>
  <style type="text/css">
   <![CDATA[
    .fil1 {fill:#FEFEFE;fill-rule:nonzero}
    .fil4 {fill:#282828;fill-rule:nonzero}
    .fil0 {fill:#3E6DB3;fill-rule:nonzero}
    .fil5 {fill:url(#id0)}
    .fil2 {fill:url(#id1)}
    .fil8 {fill:url(#id2)}
    .fil12 {fill:url(#id3)}
    .fil9 {fill:url(#id4)}
    .fil10 {fill:url(#id5)}
    .fil11 {fill:url(#id6)}
    .fil7 {fill:url(#id7)}
    .fil3 {fill:url(#id8)}
    .fil6 {fill:url(#id9)}
    .fil17 {fill:url(#id10)}
    .fil13 {fill:url(#id11)}
    .fil16 {fill:url(#id12)}
    .fil15 {fill:url(#id13)}
    .fil14 {fill:url(#id14)}
   ]]>
  </style>
  <linearGradient id="id0" gradientUnits="userSpaceOnUse" x1="5907.68" y1="12197.2" x2="5907.68" y2="11693.57">
   <stop offset="0" style="stop-opacity:1; stop-color:#282828"/>
   <stop offset="0.0509804" style="stop-opacity:1; stop-color:#282828"/>
   <stop offset="1" style="stop-opacity:1; stop-color:#5E605F"/>
  </linearGradient>
  <linearGradient id="id1" gradientUnits="userSpaceOnUse" x1="5907.31" y1="12151.43" x2="5907.31" y2="11836.65">
   <stop offset="0" style="stop-opacity:1; stop-color:#324F88"/>
   <stop offset="1" style="stop-opacity:1; stop-color:#406DB3"/>
  </linearGradient>
  <linearGradient id="id2" gradientUnits="userSpaceOnUse" xlink:href="#id1" x1="7911.12" y1="12163.69" x2="7911.12" y2="11873.48">
  </linearGradient>
  <linearGradient id="id3" gradientUnits="userSpaceOnUse" xlink:href="#id0" x1="9832.27" y1="12056.36" x2="9832.27" y2="11774.1">
  </linearGradient>
  <linearGradient id="id4" gradientUnits="userSpaceOnUse" xlink:href="#id0" x1="8425.4" y1="12056.36" x2="8425.4" y2="11774.1">
  </linearGradient>
  <linearGradient id="id5" gradientUnits="userSpaceOnUse" xlink:href="#id0" x1="8848.88" y1="12056.36" x2="8848.88" y2="11774.1">
  </linearGradient>
  <linearGradient id="id6" gradientUnits="userSpaceOnUse" xlink:href="#id0" x1="9377.9" y1="12056.36" x2="9377.9" y2="11774.1">
  </linearGradient>
  <linearGradient id="id7" gradientUnits="userSpaceOnUse" xlink:href="#id1" x1="7424.73" y1="12163.69" x2="7424.73" y2="11873.48">
  </linearGradient>
  <linearGradient id="id8" gradientUnits="userSpaceOnUse" xlink:href="#id1" x1="5907.31" y1="12151.43" x2="5907.31" y2="11836.65">
  </linearGradient>
  <linearGradient id="id9" gradientUnits="userSpaceOnUse" xlink:href="#id1" x1="6911.09" y1="12163.69" x2="6911.09" y2="11873.48">
  </linearGradient>
  <linearGradient id="id10" gradientUnits="userSpaceOnUse" xlink:href="#id0" x1="9520.62" y1="12005.72" x2="9520.62" y2="11748.55">
  </linearGradient>
  <linearGradient id="id11" gradientUnits="userSpaceOnUse" xlink:href="#id0" x1="9832.27" y1="12056.36" x2="9832.27" y2="11774.1">
  </linearGradient>
  <linearGradient id="id12" gradientUnits="userSpaceOnUse" xlink:href="#id0" x1="9447.34" y1="12079.28" x2="9447.34" y2="11822.1">
  </linearGradient>
  <linearGradient id="id13" gradientUnits="userSpaceOnUse" xlink:href="#id0" x1="9447.34" y1="12005.59" x2="9447.34" y2="11748.48">
  </linearGradient>
  <linearGradient id="id14" gradientUnits="userSpaceOnUse" xlink:href="#id0" x1="9520.75" y1="12079.3" x2="9520.75" y2="11822.15">
  </linearGradient>
 </defs>
 <g id="Layer_x0020_1">
  <metadata id="CorelCorpID_0Corel-Layer"/>
  <path class="fil0" d="M6667.84 12269c-32.35,64.37 -72.68,124 -119.72,177.64l3526.64 0 0 -177.64 -3406.92 0z"/>
  <path class="fil1" d="M6631.04 12334.84c-9.72,15.69 -20.01,30.96 -30.72,45.93l3474.44 0 0 -45.93 -3443.72 0z"/>
  <path class="fil0" d="M6553.17 11341.63c46.31,53.74 85.97,113.33 117.67,177.61l3403.92 0 0 -177.61 -3521.59 0z"/>
  <path class="fil1" d="M6602.17 11404.26c10.64,14.98 20.91,30.25 30.57,45.93l3442.02 0 0 -45.93 -3472.59 0z"/>
  <path class="fil2" d="M6117.85 11892.52c0,-116.29 -94.29,-210.5 -210.55,-210.5 -116.33,0 -210.53,94.21 -210.53,210.5 0,116.28 94.2,210.56 210.53,210.56 116.26,0 210.55,-94.28 210.55,-210.56z"/>
  <path class="fil3" d="M6030.4 11892.54c0,-68 -55.12,-123.07 -123.09,-123.07 -68.01,0 -123.09,55.07 -123.09,123.07 0,67.97 55.08,123.08 123.09,123.08 67.97,0 123.09,-55.11 123.09,-123.08z"/>
  <path class="fil4" d="M5994.21 11892.54c0,-48 -38.92,-86.88 -86.91,-86.88 -48.01,0 -86.9,38.88 -86.9,86.88 0,48 38.89,86.9 86.9,86.9 47.99,0 86.91,-38.9 86.91,-86.9z"/>
  <path class="fil5" d="M6362.4 11852.41c0,0 -28.83,0 -35.89,0 -7.11,0 -11.11,-15.39 -11.11,-15.39l-0.04 0c-2.25,-16.83 -5.54,-33.36 -9.82,-49.48 -0.19,-1.97 -1.67,-15.7 4.4,-18.22 6.54,-2.72 33.2,-13.74 33.2,-13.74 7.39,-3.11 10.92,-11.6 7.87,-18.98l-19.6 -47.26c-3.07,-7.42 -11.59,-10.93 -18.98,-7.89 0,0 -26.64,11.06 -33.19,13.79 -6.54,2.69 -16.13,-10 -16.13,-10l0 0c-8.47,-14.47 -17.81,-28.43 -27.93,-41.72l0.02 0c0,0 -8.04,-13.74 -3.02,-18.72 5.02,-5.03 25.39,-25.42 25.39,-25.42 5.7,-5.67 5.7,-14.89 0,-20.57l-36.15 -36.13c-5.7,-5.68 -14.91,-5.68 -20.57,0 0,0 -20.36,20.33 -25.39,25.39 -5,4.98 -18.72,-3.07 -18.72,-3.07l-0.04 0.04c-13.29,-10.13 -27.21,-19.44 -41.72,-27.93l0 0c0,0 -12.68,-9.6 -9.97,-16.14 2.69,-6.54 13.76,-33.15 13.76,-33.15 3.04,-7.42 -0.5,-15.97 -7.88,-19.01l-47.24 -19.57c-7.43,-3.07 -15.96,0.46 -19.01,7.85 0,0 -11.02,26.67 -13.75,33.21 -2.48,6.08 -16.28,4.63 -18.19,4.4 -16.15,-4.25 -32.65,-7.57 -49.51,-9.82l0 -0.06c0,0 -15.39,-3.98 -15.39,-11.07 0,-7.09 0,-35.9 0,-35.9 0,-8.06 -6.52,-14.56 -14.53,-14.56l-51.13 0c-8.04,0 -14.54,6.5 -14.54,14.56 0,0 0,28.81 0,35.9 0,7.09 -15.39,11.07 -15.39,11.07l0 0.06c-16.83,2.25 -33.36,5.56 -49.52,9.78 -1.9,0.22 -15.68,1.72 -18.23,-4.36 -2.68,-6.54 -13.7,-33.21 -13.7,-33.21 -3.09,-7.39 -11.59,-10.92 -19,-7.85l-47.27 19.57c-7.38,3.04 -10.93,11.59 -7.84,18.98 0,0 11,26.64 13.73,33.18 2.73,6.54 -9.94,16.14 -9.94,16.14l0 0c-14.51,8.49 -28.43,17.81 -41.75,27.93l-0.04 -0.04c0,0 -13.7,8.06 -18.72,3.07 -4.97,-5.06 -25.39,-25.39 -25.39,-25.39 -5.67,-5.68 -14.86,-5.68 -20.54,0l-36.16 36.13c-5.69,5.68 -5.69,14.9 0,20.57 0,0 20.38,20.39 25.41,25.39 4.99,5.01 -3.07,18.75 -3.07,18.75l0.04 0c-10.12,13.33 -19.46,27.22 -27.91,41.76l0 -0.06c0,0 -9.63,12.71 -16.13,10 -6.57,-2.74 -33.19,-13.78 -33.19,-13.78 -7.44,-3.06 -15.93,0.5 -19.02,7.87l-19.55 47.28c-3.07,7.39 0.46,15.93 7.87,18.98 0,0 26.63,11 33.17,13.74 6.07,2.5 4.6,16.24 4.37,18.19 -4.22,16.14 -7.52,32.67 -9.8,49.5l-0.03 0c0,0 -4.04,15.41 -11.09,15.41 -7.06,0 -35.93,0 -35.93,0 -8.02,0 -14.52,6.53 -14.52,14.54l0 51.13c0,8.02 6.5,14.52 14.52,14.52 0,0 28.87,0 35.93,0 7.06,0 11.09,15.41 11.09,15.41l0.03 0c2.28,16.83 5.55,33.36 9.8,49.52 0.25,1.98 1.67,15.67 -4.37,18.18 -6.55,2.71 -33.17,13.75 -33.17,13.75 -7.41,3.11 -10.94,11.59 -7.87,19l19.55 47.27c3.09,7.4 11.62,10.93 19.02,7.84 0,0 26.61,-11.06 33.19,-13.74 6.5,-2.72 16.13,9.94 16.13,9.94l0 0c8.45,14.52 17.79,28.44 27.91,41.76l-0.01 0.02c0,0 8.02,13.71 3.03,18.72 -5.03,5 -25.41,25.39 -25.41,25.39 -5.69,5.68 -5.69,14.88 0,20.56l36.16 36.17c5.68,5.65 14.87,5.65 20.57,0 0,0 20.39,-20.4 25.37,-25.41 5.01,-4.99 18.72,3.05 18.72,3.05l0.06 -0.04c13.3,10.13 27.23,19.46 41.73,27.96l0 0c0,0 12.67,9.59 9.94,16.13 -2.73,6.54 -13.73,33.18 -13.73,33.18 -3.09,7.42 0.46,15.91 7.84,19l47.28 19.56c7.39,3.07 15.9,-0.47 18.99,-7.85 0,0 11.03,-26.65 13.7,-33.2 2.57,-6.11 16.45,-4.62 18.28,-4.37 16.13,4.24 32.64,7.52 49.47,9.8l0 0c0,0 15.39,4.03 15.39,11.11 0,7.07 0,35.93 0,35.93 0,7.99 6.5,14.47 14.54,14.54l51.13 0c8.03,0 14.53,-6.55 14.53,-14.61 0,0 0,-28.79 0,-35.86 0,-7.1 15.39,-11.11 15.39,-11.11l0 0c16.85,-2.28 33.36,-5.57 49.51,-9.82 1.91,-0.23 15.68,-1.71 18.2,4.39 2.72,6.54 13.74,33.2 13.74,33.2 3.08,7.37 11.58,10.89 19.01,7.85l47.24 -19.56c7.41,-3.09 10.92,-11.61 7.88,-19.04 0,0 -11.03,-26.6 -13.76,-33.14 -2.71,-6.54 9.97,-16.13 9.97,-16.13l0 0c14.48,-8.5 28.43,-17.83 41.72,-27.96l0.04 0.04c0,0 13.72,-8.04 18.72,-3.05 5.03,5.01 25.39,25.41 25.39,25.41 5.69,5.65 14.86,5.65 20.61,0l36.11 -36.17c5.7,-5.68 5.7,-14.88 0,-20.56 0,0 -20.37,-20.39 -25.39,-25.39 -5.03,-5.01 3.02,-18.72 3.02,-18.72l-0.02 -0.05c10.13,-13.28 19.46,-27.21 27.93,-41.73l0 0c0,0 9.6,-12.66 16.14,-9.94 6.54,2.68 33.18,13.74 33.18,13.74 7.39,3.03 15.92,-0.44 18.98,-7.9l19.57 -47.21c3.07,-7.41 -0.47,-15.92 -7.87,-19 0,0 -26.63,-11.04 -33.17,-13.75 -6.07,-2.52 -4.62,-16.28 -4.4,-18.22 4.25,-16.11 7.54,-32.64 9.81,-49.5l0.04 0c0,0 4.02,-15.39 11.1,-15.39 7.07,0 35.92,0 35.92,0 7.98,0 14.54,-6.5 14.54,-14.52l0 -51.13c0,-8.06 -6.53,-14.54 -14.54,-14.54zm273.82 21.58l0 37.03c0,5.82 -4.72,10.52 -10.53,10.54 0,0 -20.83,-0.03 -25.98,-0.03 -5.14,0 -8.03,11.14 -8.03,11.14l-0.07 0c-0.52,9.14 -1.17,18.22 -2.06,27.28 0.06,0.67 1.25,11.38 6.15,12.15 5.11,0.75 25.72,4.04 25.72,4.04 5.69,0.92 9.63,6.32 8.71,12.04l-5.81 36.57c-0.87,5.71 -6.29,9.65 -12.01,8.75 0,0 -20.57,-3.28 -25.7,-4.13 -5.04,-0.78 -9.65,9.8 -9.65,9.8l0 0c-2.02,9.08 -4.03,18.18 -6.41,27.14 -0.07,2.36 0,11.08 4.22,12.43 4.92,1.57 24.72,8.03 24.72,8.03 5.5,1.78 8.53,7.75 6.75,13.28l-11.43 35.16c-1.8,5.53 -7.72,8.56 -13.25,6.76 0,0 -19.82,-6.43 -24.71,-8.07 -4.86,-1.56 -10.99,8 -11.1,8.15 -3.3,8.54 -6.79,17 -10.48,25.37 -0.18,1.13 -2.17,11.18 2.14,13.37 4.61,2.32 23.17,11.81 23.17,11.81 5.18,2.63 7.28,8.97 4.6,14.17l-16.76 32.94c-2.65,5.18 -8.97,7.26 -14.17,4.63 0,0 -18.56,-9.49 -23.15,-11.83 -4.58,-2.32 -12.24,6.32 -12.24,6.32l0 -0.04c-4.6,7.87 -9.39,15.57 -14.28,23.22l0.03 0.03c0,0 -4.17,10.72 -0.03,13.74 4.14,3.03 21.03,15.28 21.03,15.28 4.7,3.4 5.72,9.97 2.33,14.71l-21.76 29.95c-3.4,4.67 -9.96,5.69 -14.68,2.31 0,0 -16.89,-12.27 -21.03,-15.27 -4.1,-2.98 -12.74,4.04 -13,4.26 -5.81,7.02 -11.78,13.86 -17.81,20.67l0.04 0.09c0,0 -5.82,9.92 -2.19,13.54 3.64,3.65 18.39,18.39 18.39,18.39 4.13,4.06 4.13,10.74 0,14.85l-26.2 26.17c-4.07,4.12 -10.74,4.12 -14.86,0 0,0 -14.72,-14.72 -18.36,-18.38 -3.63,-3.62 -13.56,2.24 -13.56,2.24l-0.1 -0.11c-6.75,6.08 -13.62,12.09 -20.61,17.86 -0.25,0.23 -7.28,8.89 -4.31,13 3.07,4.14 15.31,21.03 15.31,21.03 3.42,4.68 2.36,11.26 -2.32,14.67l-29.97 21.75c-4.69,3.42 -11.26,2.39 -14.69,-2.3 0,0 -12.25,-16.87 -15.26,-21.08 -3.03,-4.11 -13.78,0.11 -13.78,0.11l-0.04 -0.11c-7.61,4.91 -15.35,9.69 -23.18,14.29l0.03 0.04c0,0 -8.63,7.64 -6.29,12.2 2.36,4.59 11.79,23.2 11.79,23.2 2.67,5.13 0.59,11.46 -4.59,14.16l-32.98 16.77c-5.17,2.63 -11.49,0.58 -14.15,-4.59 0,0 -9.46,-18.6 -11.78,-23.19 -2.2,-4.29 -12.31,-2.36 -13.41,-2.11 -8.39,3.68 -16.86,7.15 -25.4,10.5 -0.29,0.15 -9.64,6.24 -8.08,11.02 1.59,4.91 8.06,24.77 8.06,24.77 1.79,5.5 -1.22,11.41 -6.78,13.23l-35.18 11.42c-5.53,1.81 -11.46,-1.22 -13.27,-6.72 0,0 -6.43,-19.82 -7.98,-24.77 -1.4,-4.17 -10.11,-4.24 -12.5,-4.17 -8.96,2.33 -18.08,4.41 -27.17,6.37 -0.38,0.19 -10.49,4.65 -9.71,9.65 0.8,5.08 4.09,25.67 4.09,25.67 0.89,5.75 -3,11.15 -8.74,12.06l-36.58 5.78c-5.71,0.92 -11.12,-2.96 -12.05,-8.74 0,0 -3.23,-20.59 -4.04,-25.68 -0.83,-4.99 -12.07,-6.14 -12.23,-6.14 -9.04,0.86 -18.09,1.51 -27.2,2.06l0 0.06c0,0 -11.13,2.85 -11.13,8 0,5.19 0,26.02 0,26.02 0,5.83 -4.7,10.53 -10.5,10.53l-37.01 0c-5.81,0 -10.54,-4.69 -10.54,-10.53 0,0 0,-20.83 0,-26.02 0,-5.11 -11.15,-8 -11.15,-8l0 -0.06c-9.13,-0.55 -18.23,-1.19 -27.28,-2.06 -0.64,0.06 -11.36,1.24 -12.13,6.14 -0.79,5.08 -4.08,25.68 -4.08,25.68 -0.93,5.78 -6.28,9.65 -12.05,8.74l-36.54 -5.78c-5.73,-0.9 -9.63,-6.3 -8.76,-12.06 0,0 3.27,-20.58 4.1,-25.67 0.79,-5.02 -9.42,-9.51 -9.73,-9.67 -9.09,-1.96 -18.18,-4.03 -27.16,-6.36 -2.39,-0.07 -11.09,0 -12.46,4.19 -1.57,4.92 -8.02,24.74 -8.02,24.74 -1.8,5.5 -7.74,8.53 -13.24,6.72l-35.21 -11.42c-5.53,-1.76 -8.55,-7.73 -6.78,-13.23 0,0 6.49,-19.85 8.08,-24.77 1.51,-4.79 -7.89,-10.92 -8.12,-11.02 -8.55,-3.35 -17.02,-6.82 -25.39,-10.5 -1.07,-0.22 -11.19,-2.21 -13.39,2.11 -2.32,4.58 -11.8,23.19 -11.8,23.19 -2.61,5.19 -8.97,7.22 -14.13,4.59l-32.99 -16.77c-5.15,-2.66 -7.25,-9.03 -4.62,-14.18 0,0 9.48,-18.58 11.83,-23.18 2.31,-4.56 -6.31,-12.2 -6.31,-12.2l0.04 -0.04c-7.85,-4.59 -15.57,-9.37 -23.21,-14.29l-0.03 0.11c0,0 -10.73,-4.23 -13.75,-0.11 -2.98,4.21 -15.27,21.08 -15.27,21.08 -3.43,4.69 -9.99,5.72 -14.65,2.33l-30 -21.78c-4.69,-3.4 -5.71,-9.99 -2.31,-14.67 0,0 12.26,-16.89 15.27,-21.03 3,-4.11 -4.07,-12.78 -4.3,-13 -7.01,-5.77 -13.87,-11.78 -20.62,-17.86l-0.08 0.11c0,0 -9.94,-5.85 -13.57,-2.19 -3.62,3.63 -18.36,18.33 -18.36,18.33 -4.09,4.12 -10.75,4.12 -14.87,0l-26.16 -26.16c-4.14,-4.08 -4.14,-10.78 0,-14.89 0,0 14.74,-14.71 18.37,-18.36 3.6,-3.62 -2.24,-13.54 -2.24,-13.54l0.08 -0.09c-6.06,-6.8 -12.05,-13.64 -17.8,-20.71 -0.52,-0.35 -8.99,-7.17 -13,-4.22 -4.17,3 -21.03,15.3 -21.03,15.3 -4.68,3.42 -11.29,2.36 -14.7,-2.34l-21.74 -29.95c-3.42,-4.69 -2.39,-11.31 2.36,-14.71 0,0 16.86,-12.25 20.98,-15.28 4.17,-2.98 -0.04,-13.74 -0.04,-13.74l0.04 -0.03c-4.87,-7.62 -9.65,-15.35 -14.25,-23.19l0 0c0,0 -7.68,-8.63 -12.21,-6.28 -4.58,2.31 -23.18,11.78 -23.18,11.78 -5.18,2.67 -11.49,0.59 -14.17,-4.59l-16.79 -32.98c-2.63,-5.17 -0.58,-11.51 4.59,-14.17 0,0 18.59,-9.43 23.17,-11.75 4.3,-2.22 2.33,-12.32 2.14,-13.43 -3.71,-8.39 -7.19,-16.85 -10.54,-25.48 -0.37,-0.56 -6.3,-9.53 -11,-8.01 -4.89,1.63 -24.75,8.06 -24.75,8.06 -5.51,1.79 -11.43,-1.22 -13.23,-6.75l-11.45 -35.18c-1.78,-5.53 1.24,-11.5 6.8,-13.28 0,0 19.81,-6.43 24.7,-8.03 4.18,-1.35 4.26,-10.07 4.18,-12.43 -2.34,-8.98 -4.41,-18.09 -6.39,-27.21 -0.17,-0.35 -4.66,-10.43 -9.63,-9.7 -5.1,0.83 -25.68,4.1 -25.68,4.1 -5.73,0.92 -11.14,-3.02 -12.04,-8.72l-5.79 -36.58c-0.91,-5.74 3,-11.14 8.74,-12.03 0,0 20.6,-3.25 25.68,-4.07 4.91,-0.76 6.08,-11.48 6.14,-12.15 -0.87,-9.06 -1.52,-18.14 -2.04,-27.25l-0.07 0c0,0 -2.89,-11.14 -8.03,-11.14 -5.12,0 -25.95,0 -25.95,0 -5.87,0 -10.54,-4.72 -10.54,-10.53l0 -37c0,-5.81 4.67,-10.54 10.54,-10.54 0,0 20.83,0 25.95,0 5.14,0 8.03,-11.15 8.03,-11.15l0.07 0c0.53,-9.13 1.18,-18.21 2.04,-27.24 -0.06,-0.65 -1.24,-11.39 -6.14,-12.14 -5.1,-0.83 -25.68,-4.1 -25.68,-4.1 -5.76,-0.92 -9.65,-6.29 -8.74,-12.04l5.79 -36.54c0.9,-5.75 6.31,-9.64 12.04,-8.75 0,0 20.58,3.28 25.68,4.06 4.95,0.82 9.46,-9.28 9.63,-9.67 1.98,-9.08 4.05,-18.18 6.39,-27.19 0.08,-2.33 0,-11.07 -4.18,-12.42 -4.89,-1.6 -24.7,-8.06 -24.7,-8.06 -5.56,-1.78 -8.58,-7.72 -6.8,-13.24l11.44 -35.21c1.8,-5.53 7.74,-8.56 13.25,-6.76 0,0 19.86,6.44 24.75,8.06 4.78,1.56 10.89,-7.89 11.04,-8.1 3.33,-8.57 6.83,-17.03 10.48,-25.41 0.19,-1.02 2.19,-11.18 -2.11,-13.38 -4.58,-2.35 -23.17,-11.8 -23.17,-11.8 -5.18,-2.61 -7.23,-8.97 -4.59,-14.14l16.79 -33c2.65,-5.17 8.99,-7.23 14.14,-4.58 0,0 18.62,9.47 23.16,11.81 4.58,2.33 12.26,-6.26 12.26,-6.26l0 0c4.59,-7.85 9.38,-15.57 14.25,-23.22l-0.04 0c0,0 4.2,-10.74 0.04,-13.76 -4.15,-3.03 -21.02,-15.26 -21.02,-15.26 -4.71,-3.46 -5.74,-10 -2.32,-14.72l21.74 -29.92c3.4,-4.68 10.03,-5.76 14.7,-2.35 0,0 16.88,12.29 21.03,15.29 4.06,2.93 12.57,-3.94 13,-4.24 5.76,-7.06 11.74,-13.89 17.8,-20.68l-0.08 -0.08c0,0 5.84,-9.94 2.24,-13.54 -3.67,-3.68 -18.37,-18.39 -18.37,-18.39 -4.14,-4.11 -4.14,-10.81 -0.06,-14.89l26.22 -26.18c4.1,-4.1 10.78,-4.1 14.87,0 0,0 14.74,14.81 18.36,18.39 3.63,3.59 13.55,-2.2 13.55,-2.2l0.06 0.04c6.82,-6.03 13.68,-12.06 20.74,-17.85 0.35,-0.37 7.16,-8.92 4.23,-12.96 -3.01,-4.12 -15.27,-21.03 -15.27,-21.03 -3.4,-4.67 -2.41,-11.26 2.31,-14.68l29.93 -21.78c4.7,-3.4 11.28,-2.36 14.72,2.35 0,0 12.25,16.89 15.27,21.02 3.02,4.17 13.75,-0.03 13.75,-0.03l0.03 0.06c7.65,-4.92 15.36,-9.68 23.21,-14.29l-0.04 0c0,0 8.61,-7.67 6.29,-12.2 -2.32,-4.59 -11.81,-23.19 -11.81,-23.19 -2.63,-5.18 -0.56,-11.54 4.62,-14.17l32.95 -16.82c5.18,-2.59 11.56,-0.53 14.17,4.64 0,0 9.48,18.58 11.8,23.15 2.2,4.33 12.33,2.35 13.39,2.13 8.37,-3.65 16.84,-7.11 25.39,-10.48 0.23,-0.15 9.63,-6.22 8.06,-11.04 -1.55,-4.89 -8.02,-24.71 -8.02,-24.71 -1.78,-5.53 1.21,-11.48 6.78,-13.26l35.16 -11.46c5.55,-1.81 11.5,1.22 13.29,6.76 0,0 6.4,19.87 8.02,24.72 1.37,4.2 10.11,4.26 12.46,4.2 8.98,-2.32 18.06,-4.39 27.16,-6.39 0.31,-0.14 10.46,-4.67 9.73,-9.64 -0.83,-5.07 -4.1,-25.68 -4.1,-25.68 -0.92,-5.71 3,-11.14 8.74,-12.03l36.56 -5.81c5.77,-0.9 11.12,2.99 12.05,8.75 0,0 3.26,20.59 4.08,25.69 0.74,4.89 11.5,6.07 12.13,6.15 9.05,-0.89 18.15,-1.53 27.28,-2.1l0 -0.01c0,0 11.15,-2.92 11.15,-8.06 0,-5.12 0,-25.97 0,-25.97 0,-5.82 4.7,-10.53 10.52,-10.53l37.03 0c5.8,0 10.5,4.71 10.5,10.53 0,0 0,20.85 0,25.97 0,5.14 11.13,8.06 11.13,8.06l0 0.01c9.14,0.57 18.24,1.21 27.28,2.1 0.66,-0.08 11.37,-1.26 12.13,-6.15 0.83,-5.11 4.09,-25.69 4.09,-25.69 0.91,-5.76 6.27,-9.65 12.05,-8.75l36.51 5.81c5.75,0.89 9.68,6.28 8.75,12.06 0,0 -3.25,20.54 -4.07,25.65 -0.82,5.07 9.76,9.64 9.76,9.64l0 0c9.11,2 18.21,4.07 27.18,6.4 2.46,0.07 11.06,-0.03 12.39,-4.17 1.6,-4.99 8.04,-24.78 8.04,-24.78 1.79,-5.54 7.72,-8.57 13.24,-6.78l35.21 11.46c5.53,1.79 8.56,7.74 6.76,13.28 0,0 -6.49,19.79 -8.03,24.71 -1.6,4.83 7.94,10.93 8.13,11.06 8.54,3.36 17.01,6.83 25.41,10.48 1.38,0.29 11.14,2.13 13.3,-2.13 2.35,-4.61 11.8,-23.19 11.8,-23.19 2.61,-5.17 8.97,-7.25 14.15,-4.6l32.94 16.79c5.22,2.65 7.26,9.02 4.64,14.17 0,0 -9.48,18.57 -11.8,23.17 -2.33,4.58 6.29,12.22 6.29,12.22l-0.02 0c7.82,4.64 15.56,9.4 23.19,14.28l0.04 -0.04c0,0 10.72,4.2 13.75,0.08 3,-4.18 15.29,-21.08 15.29,-21.08 3.39,-4.7 9.94,-5.74 14.67,-2.32l29.92 21.76c4.71,3.42 5.75,10.03 2.36,14.71 0,0 -12.25,16.83 -15.28,21.03 -2.99,4.09 4.07,12.75 4.29,13 7,5.78 13.87,11.76 20.65,17.78l0.08 -0.04c0,0 9.92,5.85 13.54,2.22 3.64,-3.67 18.39,-18.39 18.39,-18.39 4.1,-4.1 10.76,-4.13 14.85,0l26.18 26.18c4.13,4.08 4.13,10.76 0,14.86 0,0 -14.75,14.69 -18.39,18.37 -3.63,3.61 2.24,13.56 2.24,13.56l-0.07 0.11c6.02,6.79 12.04,13.63 17.82,20.67 0.43,0.35 8.92,7.18 12.97,4.22 4.17,-3.02 21.04,-15.26 21.04,-15.26 4.64,-3.43 11.26,-2.4 14.67,2.32l21.76 29.93c3.39,4.7 2.39,11.28 -2.33,14.72 0,0 -16.89,12.22 -21.04,15.26 -4.13,3 0.09,13.75 0.09,13.75l-0.06 0.03c4.86,7.63 9.65,15.35 14.25,23.21l0 0c0,0 7.65,8.6 12.21,6.25 4.63,-2.33 23.19,-11.78 23.19,-11.78 5.17,-2.67 11.47,-0.61 14.15,4.58l16.76 33c2.64,5.17 0.6,11.52 -4.6,14.13 0,0 -18.56,9.46 -23.17,11.81 -4.4,2.21 -2.24,12.74 -2.07,13.46 3.65,8.35 7.13,16.79 10.46,25.32 0.12,0.24 6.19,9.65 11.04,8.1 4.91,-1.58 24.72,-8.06 24.72,-8.06 5.53,-1.78 11.42,1.22 13.25,6.78l11.43 35.18c1.78,5.53 -1.25,11.47 -6.75,13.26 0,0 -19.8,6.41 -24.72,8 -4.22,1.42 -4.22,10.26 -4.21,12.56 2.35,8.94 4.4,17.98 6.39,27.12 0.17,0.25 4.62,10.49 9.64,9.67 5.08,-0.79 25.72,-4.06 25.72,-4.06 5.71,-0.89 11.11,2.96 12,8.75l5.78 36.54c0.94,5.74 -2.99,11.12 -8.74,12.04 0,0 -20.56,3.25 -25.67,4.06 -5.02,0.79 -6.14,12.1 -6.15,12.24 0.87,9.03 1.54,18.08 2.04,27.18l0.07 0c0,0 2.89,11.15 8.01,11.15 5.15,0 26.02,0 26.02,0 5.82,0 10.53,4.68 10.53,10.5z"/>
  <path class="fil1" d="M5951.31 11315.33c0,19.58 -15.87,35.44 -35.45,35.44 -19.57,0 -35.45,-15.86 -35.45,-35.44 0,-19.57 15.87,-35.46 35.45,-35.46 19.57,0 35.45,15.89 35.45,35.46z"/>
  <path class="fil1" d="M5951.31 12485.69c0,19.58 -15.87,35.46 -35.45,35.46 -19.57,0 -35.45,-15.87 -35.45,-35.46 0,-19.57 15.87,-35.44 35.45,-35.44 19.57,0 35.45,15.87 35.45,35.44z"/>
  <path class="fil1" d="M6501.04 11935.97c-19.57,0 -35.44,-15.87 -35.44,-35.44 0,-19.58 15.88,-35.46 35.44,-35.46 19.58,0 35.46,15.87 35.46,35.46 0,19.57 -15.88,35.44 -35.46,35.44z"/>
  <polygon class="fil6" points="6692.85,11659.93 7129.31,11659.93 7129.31,11774.66 6982.88,11774.66 6982.88,12124.61 6839.3,12124.61 6839.3,11774.66 6692.85,11774.66 "/>
  <path class="fil7" d="M7340.41 11848.22l60.56 0c6.53,0 19.22,-2.12 38.03,-6.35 9.51,-1.9 17.28,-6.76 23.3,-14.58 6.02,-7.82 9.03,-16.79 9.03,-26.94 0,-15 -4.75,-26.51 -14.26,-34.56 -9.5,-8.02 -27.37,-12.04 -53.56,-12.04l-63.1 0 0 94.47zm-144.21 276.39l0 -464.69 239.32 0c44.37,0 78.29,3.81 101.75,11.42 23.43,7.61 42.35,21.71 56.72,42.31 14.37,20.61 21.57,45.71 21.57,75.29 0,25.78 -5.51,48.01 -16.5,66.72 -11.01,18.7 -26.13,33.86 -45.35,45.49 -12.26,7.39 -29.08,13.51 -50.43,18.37 17.08,5.72 29.57,11.43 37.37,17.14 5.26,3.81 12.92,11.94 22.94,24.43 10.04,12.47 16.75,22.09 20.14,28.86l69.53 134.66 -162.25 0 -76.74 -142c-9.75,-18.39 -18.41,-30.32 -26,-35.82 -10.36,-7.18 -22.07,-10.78 -35.18,-10.78l-12.7 0 0 188.6 -144.21 0z"/>
  <path class="fil8" d="M7990.54 11659.93l143.25 0 0 276.85c0,27.46 -4.25,53.38 -12.83,77.77 -8.54,24.41 -21.97,45.72 -40.25,63.98 -18.28,18.28 -37.46,31.1 -57.54,38.49 -27.87,10.35 -61.39,15.52 -100.47,15.52 -22.6,0 -47.28,-1.57 -74,-4.75 -26.75,-3.16 -49.07,-9.44 -67.03,-18.83 -17.99,-9.4 -34.4,-22.76 -49.29,-40.08 -14.92,-17.31 -25.1,-35.16 -30.6,-53.53 -8.87,-29.56 -13.32,-55.75 -13.32,-78.56l0 -276.85 143.28 0 0 283.44c0,25.33 7.03,45.14 21.08,59.39 14.04,14.25 33.53,21.38 58.48,21.38 24.71,0 44.1,-7.03 58.15,-21.07 14.06,-14.04 21.08,-33.93 21.08,-59.7l0 -283.44z"/>
  <path class="fil9" d="M8372.48 11858.04l35.18 0c27.67,0 47.13,-4.81 58.32,-14.42 11.21,-9.63 16.79,-21.93 16.79,-36.93 0,-14.58 -4.85,-26.94 -14.57,-37.09 -9.74,-10.13 -28.02,-15.21 -54.85,-15.21l-40.87 0 0 103.65zm-144.24 -198.11l238.69 0c51.97,0 90.89,12.36 116.81,37.08 25.87,24.74 38.82,59.92 38.82,105.56 0,46.9 -14.11,83.58 -42.32,109.98 -28.22,26.42 -71.26,39.63 -129.15,39.63l-78.61 0 0 172.43 -144.24 0 0 -464.69z"/>
  <path class="fil10" d="M8898.44 11947.43l-51.29 -167.06 -50.76 167.06 102.06 0zm29.78 100.48l-163.03 0 -22.65 76.71 -146.58 0 174.64 -464.69 156.63 0 174.61 464.69 -150.36 0 -23.25 -76.71z"/>
  <path class="fil11" d="M9293.59 11848.22l60.54 0c6.54,0 19.21,-2.12 38.04,-6.35 9.49,-1.9 17.28,-6.76 23.3,-14.58 6.03,-7.82 9.04,-16.79 9.04,-26.94 0,-15 -4.78,-26.51 -14.28,-34.56 -9.52,-8.02 -27.36,-12.04 -53.57,-12.04l-63.07 0 0 94.47zm-144.24 276.39l0 -464.69 239.32 0c44.38,0 78.28,3.81 101.75,11.42 23.46,7.61 42.37,21.71 56.75,42.31 14.35,20.61 21.54,45.71 21.54,75.29 0,25.78 -5.51,48.01 -16.5,66.72 -10.98,18.7 -26.13,33.86 -45.35,45.49 -12.26,7.39 -29.06,13.51 -50.43,18.37 17.11,5.72 29.57,11.43 37.38,17.14 5.29,3.81 12.94,11.94 22.97,24.43 10.04,12.47 16.74,22.09 20.11,28.86l69.54 134.66 -162.23 0 -76.78 -142c-9.71,-18.39 -18.36,-30.32 -25.99,-35.82 -10.36,-7.18 -22.07,-10.78 -35.18,-10.78l-12.67 0 0 188.6 -144.24 0z"/>
  <polygon class="fil12" points="9614.04,11659.93 10050.51,11659.93 10050.51,11774.66 9904.08,11774.66 9904.08,12124.61 9760.47,12124.61 9760.47,11774.66 9614.04,11774.66 "/>
  <path class="fil13" d="M5330.67 11935.95c-19.57,0 -35.44,-15.86 -35.44,-35.43 0,-19.58 15.87,-35.46 35.44,-35.46 19.57,0 35.45,15.87 35.45,35.46 0,19.57 -15.88,35.43 -35.45,35.43z"/>
  <path class="fil14" d="M6304.58 12339.37c-13.85,-13.83 -13.85,-36.28 0,-50.12 13.85,-13.85 36.29,-13.85 50.13,0 13.85,13.84 13.85,36.29 0,50.12 -13.83,13.85 -36.28,13.85 -50.13,0z"/>
  <path class="fil15" d="M5477 11511.79c-13.84,-13.83 -13.84,-36.28 0,-50.11 13.85,-13.85 36.29,-13.86 50.13,-0.02 13.84,13.85 13.84,36.29 0,50.14 -13.84,13.85 -36.29,13.83 -50.13,-0.02z"/>
  <path class="fil16" d="M5477 12289.23c13.85,-13.83 36.29,-13.83 50.13,0 13.84,13.86 13.84,36.31 0,50.14 -13.84,13.83 -36.29,13.83 -50.13,0 -13.84,-13.83 -13.84,-36.28 0,-50.14z"/>
  <path class="fil17" d="M6304.59 11461.68c13.83,-13.85 36.28,-13.85 50.11,0 13.86,13.83 13.86,36.28 0.01,50.13 -13.85,13.83 -36.29,13.83 -50.14,0 -13.85,-13.85 -13.83,-36.3 0.01,-50.13z"/>
 </g>
</svg>
